# xmcd
#
# Track frame offsets:
#	150
#	7515
#	15185
#	25267
#	33527
#	38657
#	45622
#	53025
#	60870
#	70485
#	79352
#	87140
#	93560
#	100177
#	110602
#	117915
#	125335
#	131120
#	138182
#	146185
#	150820
#	156827
#	162225
#	170567
#	178612
#	184385
#	193070
#	202987
#	213082
#	218992
#	227800
#	236000
#	246222
#	254142
#	264147
#	276747
#	287067
#
# Disc length: 4130 seconds
#
# Revision: 1
# Processed by: cddbd v1.5PL3 Copyright (c) Steve Scherf et al.
# Submitted via: CDex 1.50Beta5
#
DISCID=0c102025
DTITLE=新しいアーティスト - Dance Panic
DYEAR=1900
DGENRE=Electronica/Dance -> General Dance
TTITLE0=Moulin Rouge - DJ I Wanna Be Your Record
TTITLE1=Paul Lekakis - Boom Boom(Lit's Go Back To My Room)
TTITLE2=Green Olives - Jive Into The Night
TTITLE3=Green Olives - Shake My Day
TTITLE4=Sylvester With Patrick Cowley - DO YA Wanna Funk
TTITLE5=Dee D Jackson - Sos
TTITLE6=Trans-X - Living On Video
TTITLE7=Freeez - Iou
TTITLE8=The Cover Girls - Because Of You
TTITLE9=The Cover Girls - Show Me
TTITLE10=Finzy Kontini - Cha Cha Cha
TTITLE11=Moulin Rouge - Boys Don't Cry
TTITLE12=Moulin Rouge - High Energy Boy
TTITLE13=Yell - Let's Go Round Again
TTITLE14=Yell - Instant Replay
TTITLE15=Toni Basil - Mickey
TTITLE16=M - Pop Muzik
TTITLE17=Arabesque - Friday Night
TTITLE18=Silver Convention - Get Up And Boogie(That's Right)
TTITLE19=Stars On - Beatles Medley
TTITLE20=Shocking Blue - Venus
TTITLE21=Don't Let Me Be Misunderstood
TTITLE22=Patty Ryan - You're My Love,You're My Life
TTITLE23=Lady Lily - Get Out Of My Life
TTITLE24=Danuta - Touch My Heart
TTITLE25=Shy Rose - I Cry For You
TTITLE26=Queen Samantha - Close Your Eyes
TTITLE27=The Eastern Gang - Magic Eyes
TTITLE28=Voyage - Souvenirs
TTITLE29=Voyage - Let's Get Started
TTITLE30=Two Tons O'fun
TTITLE31=Boys Town Gang - Remember Me
TTITLE32=Boys Town Gang - Ain't No Mountain High Enough
TTITLE33=Sylvester - You Make Me Feel(Mighty Real)
TTITLE34=Lime - Unexpected Lovers
TTITLE35=Hot Gossip - Break Me Into Little Pieces
TTITLE36=Boys Town Gang - Can't Take My Eyes Off You
EXTD=
EXTT0=
EXTT1=
EXTT2=
EXTT3=
EXTT4=
EXTT5=
EXTT6=
EXTT7=
EXTT8=
EXTT9=
EXTT10=
EXTT11=
EXTT12=
EXTT13=
EXTT14=
EXTT15=
EXTT16=
EXTT17=
EXTT18=
EXTT19=
EXTT20=
EXTT21=
EXTT22=
EXTT23=
EXTT24=
EXTT25=
EXTT26=
EXTT27=
EXTT28=
EXTT29=
EXTT30=
EXTT31=
EXTT32=
EXTT33=
EXTT34=
EXTT35=
EXTT36=
PLAYORDER=
